<svg xmlns="http://www.w3.org/2000/svg" width="50" height="50" viewBox="25 25 50 50"><path fill="#020202" d="M69.225 46.185H64.87c.317 1.227.506 2.514.506 3.837 0 8.487-6.887 15.365-15.385 15.365-8.491 0-15.374-6.879-15.374-15.365 0-1.323.185-2.61.502-3.837h-4.352v21.123c0 1.057.861 1.918 1.925 1.918h34.61a1.922 1.922 0 0 0 1.924-1.918V46.185h-.001zm0-13.44a1.922 1.922 0 0 0-1.924-1.921h-5.768a1.918 1.918 0 0 0-1.918 1.921v5.758c0 1.062.857 1.922 1.918 1.922h5.768a1.92 1.92 0 0 0 1.924-1.922v-5.758zm-19.231 7.679c-5.303 0-9.61 4.299-9.61 9.598 0 5.298 4.307 9.605 9.61 9.605 5.311 0 9.622-4.304 9.622-9.605s-4.311-9.598-9.622-9.598m19.231 34.565H30.766A5.764 5.764 0 0 1 25 69.225V30.821a5.761 5.761 0 0 1 5.766-5.759h38.458a5.76 5.76 0 0 1 5.765 5.759v38.402a5.76 5.76 0 0 1-5.764 5.766"/></svg>