<svg xmlns="http://www.w3.org/2000/svg" width="50" height="50" viewBox="25 25 50 50"><path d="M74.986 46.461c0-11.196-11.227-20.308-25.025-20.308-13.801 0-25.027 9.111-25.027 20.308 0 10.038 8.903 18.449 20.932 20.041.814.174 1.923.538 2.204 1.233.252.631.163 1.622.08 2.261 0 0-.292 1.768-.356 2.146-.109.632-.505 2.473 2.167 1.347 2.67-1.124 14.41-8.487 19.661-14.53h-.002c3.627-3.979 5.366-8.017 5.366-12.498m-34.821 6.663h-4.972a1.314 1.314 0 0 1-1.313-1.315v-9.942c0-.724.589-1.313 1.313-1.313.722 0 1.31.589 1.31 1.313v8.631h3.662a1.313 1.313 0 0 1 0 2.626m5.142-1.315c0 .726-.588 1.315-1.313 1.315-.72 0-1.312-.588-1.312-1.315v-9.942c0-.724.592-1.313 1.312-1.313.725 0 1.313.589 1.313 1.313v9.942zm11.968 0a1.313 1.313 0 0 1-1.315 1.315c-.406 0-.799-.194-1.047-.525l-5.098-6.938v6.148c0 .728-.586 1.317-1.309 1.317-.725 0-1.313-.59-1.313-1.317v-9.942a1.31 1.31 0 0 1 2.36-.787l5.098 6.941v-6.154a1.313 1.313 0 0 1 2.624 0v9.942zm8.047-6.281c.725 0 1.315.588 1.315 1.312 0 .722-.589 1.311-1.315 1.311h-3.658v2.348h3.658c.725 0 1.315.59 1.315 1.311 0 .727-.591 1.316-1.315 1.316h-4.97c-.725 0-1.313-.59-1.313-1.316v-9.944c0-.723.588-1.313 1.313-1.313h4.97c.725 0 1.315.59 1.315 1.313 0 .726-.589 1.315-1.315 1.315h-3.658v2.347h3.658z"/></svg>