<svg xmlns="http://www.w3.org/2000/svg" width="50" height="50" viewBox="25 25 50 50"><path d="M75.053 72.672L59.397 57.014c2.953-3.498 4.641-7.823 4.641-12.445 0-5.192-2.032-10.076-5.715-13.75-3.67-3.68-8.568-5.705-13.79-5.705-5.22 0-10.117 2.025-13.785 5.703-3.686 3.676-5.716 8.56-5.716 13.752 0 5.194 2.03 10.078 5.716 13.754a19.402 19.402 0 0 0 13.785 5.698c4.634 0 8.972-1.682 12.482-4.628l15.655 15.66 2.383-2.381zM33.129 55.938c-3.049-3.04-4.728-7.079-4.728-11.369s1.679-8.328 4.73-11.372c3.035-3.04 7.084-4.715 11.403-4.715 4.321 0 8.371 1.675 11.407 4.718a15.949 15.949 0 0 1 4.729 11.369c0 4.292-1.679 8.329-4.729 11.369a16.05 16.05 0 0 1-11.407 4.716 16.052 16.052 0 0 1-11.405-4.716z"/></svg>