<svg xmlns="http://www.w3.org/2000/svg" width="50" height="50" viewBox="25 25 50 50"><path d="M66.191 60.096c-2.459 0-4.623 1.204-5.977 3.042L40.816 52.456c.271-.773.447-1.591.447-2.458 0-.869-.176-1.683-.447-2.459l19.398-10.682c1.354 1.837 3.518 3.042 5.977 3.042a7.451 7.451 0 0 0 7.451-7.449 7.452 7.452 0 0 0-14.902 0c0 .203.048.395.062.593L38.483 44.23c-1.283-1.039-2.896-1.688-4.672-1.688a7.453 7.453 0 1 0 0 14.905c1.777 0 3.389-.649 4.672-1.689l20.318 11.188c-.017.201-.062.391-.062.594a7.451 7.451 0 0 0 14.902 0c.002-4.114-3.335-7.444-7.45-7.444z"/></svg>