<svg xmlns="http://www.w3.org/2000/svg" width="50" height="50" viewBox="25 25 50 50"><path d="M72.667 30.691c-.097-.095-.191-.191-.287-.286l-4.677-4.677c-.954-.954-2.386-.954-3.243-.095-3.817 3.913-5.728 5.822-9.544 9.734-.859.859-.764 2.482.381 3.531l5.44 5.439c-6.394 6.967-9.735 10.307-16.701 16.703l-5.25-5.249c-1.05-1.051-2.577-1.146-3.436-.287-3.817 3.913-5.726 5.821-9.544 9.734-.859.859-.859 2.291-.095 3.149 1.718 1.719 2.576 2.576 4.293 4.391 2.578 2.577 7.254 2.958 10.308.859 15.365-10.784 22.236-17.465 33.213-32.64 2.099-2.957 1.623-7.539-.858-10.306z"/></svg>