<svg xmlns="http://www.w3.org/2000/svg" width="50" height="50" viewBox="25 25 50 50"><path d="M75.027 56.524c0-7.389-6.899-13.413-14.652-13.413-8.205 0-14.674 6.024-14.674 13.413 0 7.402 6.469 13.41 14.674 13.41 1.719 0 3.45-.464 5.174-.929l4.728 2.781-1.288-4.628c3.459-2.774 6.038-6.466 6.038-10.634zm-19.408-2.315c-.862 0-1.724-.909-1.724-1.845 0-.925.861-1.854 1.724-1.854 1.305 0 2.156.927 2.156 1.854 0 .936-.851 1.845-2.156 1.845zm9.485 0c-.851 0-1.712-.909-1.712-1.845 0-.925.861-1.854 1.712-1.854 1.29 0 2.159.927 2.159 1.854 0 .936-.867 1.845-2.159 1.845zm-7.11-13.125c.554 0 1.111.044 1.661.111-1.494-7.451-8.927-12.982-17.404-12.982C32.767 28.213 25 35.139 25 43.931c0 5.077 2.586 9.241 6.902 12.478l-1.724 5.559 6.031-3.242c2.162.459 3.887.929 6.044.929.542 0 1.08-.033 1.611-.068a14.677 14.677 0 0 1-.531-3.876c-.002-8.077 6.467-14.627 14.661-14.627zm-9.277-5.013c1.304 0 2.163.917 2.163 2.305 0 1.387-.859 2.316-2.163 2.316-1.292 0-2.585-.929-2.585-2.316-.001-1.388 1.293-2.305 2.585-2.305zm-12.069 4.62c-1.292 0-2.6-.929-2.6-2.316s1.306-2.305 2.6-2.305c1.292 0 2.154.917 2.154 2.305s-.862 2.316-2.154 2.316z"/></svg>