<svg xmlns="http://www.w3.org/2000/svg" width="50" height="50" viewBox="25 25 50 50"><path d="M74.969 49.341c0 13.444-10.98 24.341-24.53 24.341a24.567 24.567 0 0 1-11.858-3.028L25 74.969l4.427-13.059a24.096 24.096 0 0 1-3.52-12.569C25.908 35.898 36.89 25 50.438 25c13.55 0 24.531 10.898 24.531 24.341zM50.438 28.876c-11.374 0-20.624 9.18-20.624 20.464 0 4.479 1.459 8.625 3.929 11.997l-2.578 7.602 7.926-2.521a20.603 20.603 0 0 0 11.346 3.387c11.371 0 20.624-9.181 20.624-20.464.002-11.283-9.249-20.465-20.623-20.465zm12.388 26.069c-.152-.246-.554-.396-1.154-.694-.601-.299-3.559-1.743-4.107-1.941-.553-.198-.952-.299-1.354.299-.4.598-1.553 1.94-1.904 2.337-.352.401-.701.451-1.303.152-.602-.298-2.538-.929-4.835-2.961-1.787-1.581-2.994-3.534-3.345-4.132-.35-.597-.037-.919.264-1.216.271-.268.602-.697.902-1.045.302-.348.402-.596.602-.995.201-.397.101-.746-.05-1.045-.149-.298-1.354-3.234-1.854-4.429-.501-1.193-1.001-.995-1.353-.995-.35 0-.751-.05-1.152-.05-.4 0-1.053.149-1.604.747-.551.597-2.104 2.041-2.104 4.976 0 2.936 2.153 5.773 2.455 6.17s4.159 6.619 10.271 9.009c6.114 2.387 6.114 1.589 7.217 1.49 1.101-.099 3.557-1.443 4.059-2.836.5-1.396.5-2.592.349-2.841z"/></svg>