<svg xmlns="http://www.w3.org/2000/svg" width="50" height="50" viewBox="25 25 50 50"><path d="M74.151 38.229c-.613-2.648-2.788-4.602-5.407-4.893-6.202-.689-12.478-1.121-18.729-1.117-6.25-.004-12.527.427-18.73 1.117-2.618.292-4.793 2.245-5.404 4.893C25.011 42 25 46.117 25 50c0 3.884 0 8.001.871 11.771.612 2.647 2.787 4.602 5.405 4.892 6.202.69 12.479 1.121 18.729 1.118 6.251.003 12.527-.428 18.729-1.118 2.618-.29 4.795-2.244 5.406-4.892.871-3.771.876-7.888.876-11.771.001-3.883.005-8-.865-11.771M58.536 51.152l-11.79 6.374c-1.171.635-2.131.063-2.131-1.27V43.743c0-1.332.958-1.904 2.131-1.27l11.79 6.375c1.173.632 1.173 1.671 0 2.304"/></svg>